<svg width="17" height="15" viewBox="0 0 17 15" fill="none" xmlns="http://www.w3.org/2000/svg">
<path d="M8.16207 0.999993L6.44789 4.43257C6.14588 5.03733 5.5648 5.44578 4.89348 5.52519L1.00121 5.9855L3.77874 8.43631C4.31362 8.90828 4.55755 9.6357 4.41534 10.3347L3.68754 13.9121L7.24226 12.0709C7.52529 11.9243 7.84336 11.8469 8.16208 11.8469C8.4808 11.8469 8.79887 11.9243 9.08192 12.0709L12.6366 13.9121C12.6366 13.9121 12.6366 13.9121 12.6366 13.9121L11.9088 10.3347C11.7666 9.6357 12.0105 8.90828 12.5454 8.43631L15.3229 5.9855L11.4307 5.52519C10.7594 5.44579 10.1783 5.03733 9.87628 4.43258L8.16207 0.999993ZM8.16208 0C8.51731 0 8.87254 0.184408 9.05672 0.553224L10.7709 3.9858C10.9214 4.28719 11.2136 4.49254 11.5481 4.53211L15.4404 4.99242C16.2989 5.09395 16.6328 6.16336 15.9846 6.73533L13.207 9.18614C12.9388 9.42283 12.8174 9.78478 12.8887 10.1353L13.6165 13.7127C13.7841 14.5362 12.9229 15.1865 12.1767 14.8001L8.622 12.9589C8.33358 12.8095 7.99058 12.8095 7.70216 12.9589L4.14746 14.8001C3.4013 15.1865 2.54009 14.5362 2.70761 13.7127L3.43541 10.1353C3.50673 9.78478 3.38535 9.42283 3.11711 9.18614L0.339568 6.73533C-0.308641 6.16337 0.0252574 5.09395 0.883759 4.99242L4.77604 4.53211C5.11058 4.49254 5.40273 4.28719 5.55324 3.9858L7.26743 0.553224C7.45161 0.184408 7.80685 0 8.16208 0Z" fill="#F5B423"/>
</svg>
