<svg width="47" height="16" viewBox="0 0 47 16" fill="none" xmlns="http://www.w3.org/2000/svg">
<path fill-rule="evenodd" clip-rule="evenodd" d="M41.899 9.69888H41.058C41.0228 9.69632 40.9874 9.69936 40.953 9.70788C40.9442 9.71076 40.9365 9.71636 40.931 9.72388C40.916 9.71244 40.8987 9.70422 40.8802 9.69975C40.8618 9.69528 40.8427 9.69464 40.8241 9.69788H39.846C39.8276 9.6947 39.8087 9.69527 39.7905 9.69957C39.7723 9.70387 39.7551 9.71179 39.7401 9.72288L39.733 9.71288C39.7009 9.70185 39.6668 9.69776 39.633 9.70088C39.511 9.70088 39.389 9.70088 39.267 9.70088C39.183 9.70088 39.176 9.68788 39.204 9.60988C39.28 9.40388 39.35 9.19588 39.428 8.98988C39.4421 8.96025 39.4486 8.92763 39.4471 8.89488V8.88788C39.4791 8.87088 39.485 8.83488 39.496 8.80488C39.621 8.45788 39.748 8.11288 39.873 7.76588C39.883 7.73888 39.898 7.71088 39.873 7.68288C39.908 7.68288 39.912 7.64888 39.92 7.62488C40.132 7.03788 40.351 6.45388 40.551 5.86288C40.5625 5.83822 40.5673 5.81099 40.565 5.78388C40.602 5.77488 40.603 5.73888 40.614 5.71188C40.783 5.25488 40.947 4.79688 41.114 4.33888C41.1205 4.32229 41.1239 4.30468 41.124 4.28688C41.13 4.30488 41.133 4.32288 41.137 4.34088C41.1541 4.45556 41.1819 4.56839 41.22 4.67788V4.68488C41.2103 4.70893 41.2103 4.73583 41.22 4.75988C41.231 4.82488 41.244 4.88888 41.258 4.95288C41.5387 6.29888 41.8201 7.64488 42.1021 8.99088C42.1531 9.23288 42.194 9.47688 42.26 9.71688C42.264 9.71659 42.2681 9.71659 42.272 9.71688C42.235 9.69935 42.1945 9.69026 42.1535 9.69026C42.1126 9.69026 42.0721 9.69935 42.035 9.71688C42.0275 9.7097 42.0187 9.70394 42.009 9.69988C41.9742 9.69251 41.9386 9.68982 41.903 9.69188M46.857 14.8349C46.722 14.1909 46.589 13.5469 46.457 12.9029C46.357 12.4399 46.257 11.9779 46.164 11.5149C46.1643 11.5122 46.1643 11.5095 46.164 11.5069L44.917 5.52988C44.5544 3.79655 44.193 2.06322 43.833 0.329882C43.82 0.269882 43.802 0.250882 43.739 0.250882H40.578C40.5267 0.245294 40.4747 0.249708 40.425 0.263882C40.1573 0.277929 39.898 0.362071 39.673 0.507882C39.647 0.521882 39.62 0.534882 39.596 0.550882C39.269 0.778809 39.0262 1.10811 38.905 1.48788L38.178 3.22288C38.147 3.29488 38.114 3.36588 38.085 3.43788L37.702 4.36588C37.656 4.47288 37.607 4.57788 37.563 4.68588L37.099 5.82088C37.0726 5.86131 37.0524 5.90547 37.039 5.95188L36.495 7.25788C36.47 7.31488 36.4441 7.37088 36.4211 7.42788L36.032 8.36788C35.949 8.56188 35.865 8.75488 35.784 8.94988L35.284 10.1499C35.248 10.2319 35.211 10.3129 35.177 10.3949L34.695 11.5559C34.487 12.0319 34.288 12.5119 34.095 12.9939C34.0892 12.9995 34.0842 13.0059 34.08 13.0129C33.8294 13.6129 33.579 14.2129 33.329 14.8129C33.3116 14.8398 33.3016 14.8708 33.3 14.9029H37.1001C37.119 14.9018 37.1381 14.9018 37.157 14.9029C37.241 14.9189 37.278 14.8829 37.305 14.8029C37.393 14.5409 37.492 14.2839 37.586 14.0229C37.686 13.7399 37.786 13.4569 37.886 13.1739C37.934 13.0479 37.986 12.9219 38.028 12.7939C38.0302 12.7815 38.0348 12.7697 38.0416 12.7592C38.0484 12.7487 38.0572 12.7396 38.0675 12.7325C38.0779 12.7254 38.0895 12.7205 38.1018 12.718C38.1141 12.7155 38.1267 12.7154 38.139 12.7179C38.283 12.7179 38.427 12.7179 38.571 12.7179C38.947 12.7252 39.3231 12.7252 39.6991 12.7179C40.0857 12.7252 40.4724 12.7252 40.859 12.7179C41.259 12.7252 41.6564 12.7252 42.051 12.7179C42.309 12.7179 42.568 12.7239 42.827 12.7179C42.896 12.7179 42.919 12.7409 42.932 12.8029C43.073 13.4879 43.217 14.1719 43.357 14.8569C43.365 14.8959 43.381 14.9059 43.416 14.9059H43.963H45.973H46.545C46.635 14.9059 46.725 14.9059 46.814 14.9059C46.872 14.9059 46.872 14.8879 46.862 14.8399" fill="#727174"/>
<path fill-rule="evenodd" clip-rule="evenodd" d="M16.494 3.35596C16.571 3.17496 16.65 2.99396 16.726 2.81196C16.85 2.51196 16.971 2.21796 17.094 1.91996C17.1547 1.7964 17.2085 1.66953 17.255 1.53996C17.3004 1.45039 17.3389 1.35745 17.37 1.26196L17.794 0.268957H17.733H13.879C13.857 0.268957 13.83 0.256957 13.813 0.282957L13.679 0.625957C13.594 0.836957 13.507 1.04796 13.424 1.25896C13.306 1.55896 13.19 1.85896 13.073 2.15896C12.948 2.46996 12.822 2.78096 12.698 3.09196C12.587 3.37396 12.478 3.65696 12.368 3.93896C12.155 4.45396 11.952 4.97196 11.752 5.49296C11.706 5.60396 11.659 5.71496 11.615 5.82696L11.195 6.90296L10.607 8.38896C10.582 8.44896 10.556 8.50796 10.532 8.56896L10.019 9.87596L9.876 10.221C9.869 10.201 9.863 10.181 9.857 10.16C9.795 9.83196 9.735 9.50396 9.673 9.17596C9.621 8.90196 9.567 8.62796 9.513 8.35396C9.51399 8.33497 9.51399 8.31594 9.513 8.29696L9.288 7.13396C9.1 6.13396 8.912 5.13396 8.724 4.13396C8.572 3.32696 8.424 2.51896 8.265 1.71496C8.19342 1.306 7.97885 0.935787 7.65959 0.670378C7.34033 0.404969 6.93715 0.261636 6.522 0.265957H0.159C0.135 0.265957 0.104 0.250957 0.085 0.280957C0.058 0.402957 0.031 0.524957 0 0.645957C0 0.673957 0 0.693957 0.031 0.702957L0.648 0.840957C0.65449 0.845524 0.66155 0.849222 0.669 0.851957C1.162 0.973957 1.65 1.11396 2.131 1.27596L2.58 1.42696C3.04295 1.59719 3.49169 1.80384 3.922 2.04496C4.06263 2.14101 4.18803 2.25764 4.294 2.39096C4.44349 2.62071 4.54957 2.87593 4.607 3.14396C4.83433 4.01529 5.061 4.88729 5.287 5.75996L6.845 11.789C7.10833 12.8063 7.37067 13.8246 7.632 14.844C7.63293 14.8543 7.63601 14.8643 7.64106 14.8734C7.64611 14.8824 7.65301 14.8903 7.6613 14.8966C7.6696 14.9028 7.67912 14.9072 7.68923 14.9095C7.69934 14.9118 7.70982 14.912 7.72 14.91C7.954 14.91 8.188 14.91 8.42 14.91H9.605H10.748H11.61C11.636 14.91 11.655 14.91 11.666 14.877C11.713 14.756 11.766 14.636 11.811 14.517C11.878 14.361 11.947 14.205 12.011 14.049C12.146 13.726 12.278 13.403 12.411 13.08C12.419 13.067 12.426 13.053 12.433 13.038L12.999 11.676C13.011 11.651 13.024 11.628 13.034 11.604L13.588 10.271C13.678 10.062 13.768 9.85296 13.856 9.64296C13.975 9.35796 14.092 9.07196 14.21 8.78596C14.289 8.60196 14.37 8.41896 14.447 8.23396C14.576 7.92396 14.704 7.61296 14.832 7.30296C14.8579 7.26691 14.8744 7.22498 14.88 7.18096L14.945 7.03396C14.956 7.01296 14.967 6.99196 14.978 6.96896L15.567 5.54996C15.7 5.23596 15.835 4.92296 15.967 4.60796C16.141 4.19196 16.313 3.77596 16.486 3.35996" fill="#727174"/>
<path fill-rule="evenodd" clip-rule="evenodd" d="M23.2029 0.266179H19.8499C19.7239 0.266179 19.5989 0.266179 19.4749 0.266179C19.4529 0.266179 19.4159 0.249179 19.4149 0.296179L19.3659 0.525179C19.3659 0.541179 19.3549 0.556179 19.3519 0.572179C19.2412 1.08951 19.1309 1.60685 19.0209 2.12418C18.9649 2.38618 18.9119 2.64918 18.8579 2.91218C18.8548 2.91679 18.8524 2.92185 18.8509 2.92718C18.7449 3.42318 18.6392 3.91951 18.5339 4.41618C18.4981 4.55395 18.4694 4.69347 18.4479 4.83418C18.4019 4.99718 18.3719 5.16318 18.3389 5.33418L18.0279 6.78918C17.9969 6.92918 17.9639 7.06918 17.9339 7.21018L17.6989 8.32518C17.6921 8.33973 17.6864 8.35477 17.6819 8.37018C17.5899 8.79951 17.4989 9.22918 17.4089 9.65918L17.1919 10.6942C17.1499 10.8822 17.1069 11.0692 17.0679 11.2582L16.7679 12.6712C16.7429 12.7852 16.7159 12.8992 16.6919 13.0122L16.2979 14.8502C16.2909 14.8842 16.2789 14.9132 16.3349 14.9132C16.7729 14.9132 17.2099 14.9132 17.6479 14.9132H18.8249H20.0189C20.0519 14.9132 20.0649 14.9052 20.0709 14.8712C20.0829 14.8082 20.1009 14.7472 20.1169 14.6842C20.1869 14.3642 20.2589 14.0442 20.3279 13.7232C20.3689 13.5332 20.4059 13.3422 20.4449 13.1512C20.45 13.1395 20.4544 13.1275 20.4579 13.1152L20.7679 11.6432L20.8679 11.2022L20.9549 10.7822C20.9709 10.7192 20.9879 10.6572 21.0009 10.5932L21.2809 9.25918C21.2862 9.24996 21.2905 9.24025 21.2939 9.23018C21.4086 8.69685 21.5226 8.16351 21.6359 7.63018C21.6879 7.38418 21.7359 7.13718 21.7879 6.89018C21.7932 6.88063 21.7975 6.87058 21.8009 6.86018C21.9436 6.19951 22.0849 5.53885 22.2249 4.87818C22.2939 4.55118 22.3609 4.22418 22.4249 3.89818C22.4295 3.88853 22.4331 3.87849 22.4359 3.86818C22.6359 2.93085 22.8359 1.99351 23.0359 1.05618C23.0919 0.796179 23.1459 0.536179 23.2029 0.270179" fill="#727174"/>
<path fill-rule="evenodd" clip-rule="evenodd" d="M34.1139 0.624C34.0379 0.602 33.9649 0.572 33.8909 0.547C33.4955 0.411393 33.0916 0.301497 32.6819 0.218C32.6559 0.212 32.6299 0.204 32.6029 0.198C32.0165 0.0780835 31.4204 0.0118099 30.8219 0L30.4219 0.006V0C30.2049 0.012 29.9879 0.02 29.7719 0.037C29.6007 0.0462222 29.4303 0.0672724 29.2619 0.1C28.9097 0.140904 28.5617 0.21251 28.2219 0.314C27.8487 0.405169 27.4857 0.534518 27.1389 0.7C26.816 0.83841 26.5092 1.01178 26.2239 1.217C25.9028 1.42955 25.6112 1.68376 25.3569 1.973C25.2812 2.04653 25.2119 2.1265 25.1499 2.212C24.9356 2.4782 24.7577 2.77179 24.6209 3.085C24.6109 3.104 24.5999 3.122 24.5899 3.142C24.409 3.55451 24.2955 3.99345 24.2539 4.442C24.1911 4.98366 24.2597 5.53248 24.4539 6.042C24.683 6.59421 25.0357 7.08651 25.4849 7.481C25.8152 7.78696 26.1784 8.05527 26.5679 8.281C26.5827 8.29247 26.5981 8.30315 26.6139 8.313C26.9199 8.497 27.2369 8.662 27.5559 8.821C27.6999 8.893 27.8439 8.962 27.9889 9.033C28.1409 9.12 28.2949 9.206 28.4469 9.294C28.6926 9.43313 28.9209 9.60097 29.1269 9.794C29.3329 9.97954 29.4688 10.2302 29.5119 10.504C29.5119 10.504 29.5119 10.504 29.5119 10.509V10.743C29.5119 10.743 29.5119 10.743 29.5119 10.748C29.479 10.9985 29.3685 11.2325 29.1959 11.417C29.0207 11.5827 28.8176 11.7161 28.5959 11.811C28.4589 11.87 28.3149 11.911 28.1739 11.957C27.8007 12.0415 27.4185 12.0801 27.0359 12.072L26.5729 12.059C26.1499 12.0322 25.7298 11.9707 25.3169 11.875C25.1309 11.829 24.9449 11.775 24.7589 11.727C24.5679 11.656 24.3769 11.588 24.1869 11.513C23.9289 11.413 23.6789 11.292 23.4269 11.176C23.4039 11.165 23.3659 11.123 23.3529 11.186C23.2919 11.475 23.2329 11.765 23.1729 12.054C23.1673 12.0663 23.1626 12.079 23.1589 12.092C23.0029 12.8253 22.8459 13.5587 22.6879 14.292C22.6843 14.3003 22.6826 14.3094 22.6829 14.3185C22.6832 14.3275 22.6854 14.3365 22.6895 14.3446C22.6936 14.3527 22.6995 14.3598 22.7066 14.3654C22.7138 14.371 22.7221 14.375 22.7309 14.377C23.0734 14.5231 23.4268 14.6422 23.7879 14.733C23.9336 14.7772 24.0824 14.8106 24.2329 14.833C24.3453 14.8646 24.4595 14.889 24.5749 14.906C24.8602 14.9626 25.1483 15.0043 25.4379 15.031C25.4649 15.045 25.4969 15.031 25.5239 15.045H25.5839C25.5839 15.045 25.5909 15.045 25.5939 15.045C25.6156 15.0533 25.6389 15.0564 25.6619 15.054C25.6619 15.054 25.6679 15.054 25.6719 15.054H25.7489C25.7819 15.07 25.8189 15.054 25.8489 15.066H25.9249C25.9381 15.0691 25.9518 15.0691 25.9649 15.066C25.9832 15.0711 26.002 15.0738 26.0209 15.074L26.7809 15.111V15.125H27.1079V15.111L27.1409 15.106C27.2035 15.1117 27.2664 15.1117 27.3289 15.106H27.3539H27.3919H27.5489C27.5946 15.1115 27.6409 15.1074 27.6849 15.094H27.6909H27.7389C28.0724 15.0714 28.4043 15.0297 28.7329 14.969C28.9164 14.9408 29.0978 14.9004 29.2759 14.848C29.646 14.7688 30.0072 14.6526 30.3539 14.501C30.6017 14.3994 30.8417 14.2798 31.0719 14.143C31.1019 14.148 31.1209 14.124 31.1439 14.112C31.445 13.9322 31.7274 13.7228 31.9869 13.487C31.9944 13.4847 32.0014 13.4813 32.0079 13.477C32.321 13.1968 32.5906 12.8716 32.8079 12.512C32.8189 12.497 32.8309 12.482 32.8399 12.466C33.3082 11.6771 33.5251 10.7643 33.4619 9.849C33.4188 9.03109 33.0793 8.25687 32.5069 7.671C31.9069 7.0768 31.2121 6.58675 30.4509 6.221C29.9509 5.947 29.4509 5.699 28.9639 5.4C28.9429 5.384 28.9219 5.367 28.8999 5.352C28.6903 5.21719 28.5047 5.04818 28.3509 4.852C28.2753 4.75697 28.2208 4.64687 28.1912 4.52908C28.1615 4.41129 28.1573 4.28853 28.1789 4.169C28.2145 4.03678 28.273 3.91187 28.3519 3.8C28.588 3.51266 28.9073 3.3055 29.2659 3.207C29.5119 3.14105 29.7632 3.09721 30.0169 3.076C30.0394 3.07607 30.0618 3.0744 30.0839 3.071H30.1019C30.1244 3.07109 30.1468 3.06942 30.1689 3.066H30.4089L30.9739 3.086C31.0019 3.099 31.0339 3.086 31.0619 3.098H31.1389C31.1659 3.112 31.1979 3.098 31.2249 3.11C31.3205 3.13169 31.418 3.14408 31.5159 3.147C31.527 3.1515 31.5384 3.15518 31.5499 3.158C31.8636 3.20786 32.1736 3.27835 32.4779 3.369C32.8082 3.46702 33.1316 3.58696 33.4459 3.728C33.4699 3.739 33.5049 3.776 33.5179 3.715L33.6899 2.886C33.6956 2.87405 33.7003 2.86168 33.7039 2.849C33.7613 2.58233 33.8189 2.314 33.8769 2.044C33.9709 1.60267 34.0663 1.162 34.1629 0.722C34.1739 0.67 34.1629 0.644 34.1099 0.629" fill="#727174"/>
</svg>
